<svg width="32" height="32" viewBox="0 0 32 32" fill="none" xmlns="http://www.w3.org/2000/svg">
<path d="M16 0C7.163 0 0 7.163 0 16C0 24.836 7.163 32 16 32C24.837 32 32 24.836 32 16C32 7.163 24.837 0 16 0Z" fill="#FED919"/>
<path d="M18.226 8.886C16.636 9.465 15.631 10.957 15.745 12.59L15.783 13.22L15.147 13.143C12.832 12.847 10.809 11.844 9.09104 10.159L8.25105 9.323L8.03605 9.94C7.57805 11.316 7.87104 12.77 8.82504 13.748C9.33404 14.288 9.21904 14.365 8.34204 14.044C8.03704 13.941 7.76904 13.864 7.74404 13.903C7.65504 13.993 7.96004 15.163 8.20204 15.627C8.53304 16.271 9.20704 16.9 9.94504 17.274L10.569 17.57L9.83004 17.581C9.11804 17.581 9.09204 17.594 9.16904 17.865C9.42304 18.701 10.428 19.589 11.548 19.975L12.337 20.245L11.65 20.657C10.632 21.25 9.43604 21.584 8.24004 21.608C7.66704 21.621 7.19604 21.672 7.19604 21.711C7.19604 21.839 8.74904 22.559 9.65104 22.843C12.361 23.679 15.58 23.318 17.997 21.891C19.715 20.875 21.432 18.855 22.234 16.899C22.667 15.858 23.099 13.954 23.099 13.041C23.099 12.449 23.137 12.372 23.849 11.665C24.269 11.253 24.663 10.803 24.74 10.675C24.868 10.43 24.854 10.43 24.206 10.649C23.125 11.035 22.972 10.984 23.507 10.405C23.901 9.993 24.372 9.247 24.372 9.029C24.372 8.991 24.181 9.055 23.965 9.17C23.736 9.299 23.227 9.492 22.845 9.607L22.158 9.826L21.535 9.4C21.191 9.169 20.709 8.911 20.454 8.834C19.804 8.654 18.812 8.68 18.226 8.886Z" fill="black"/>
</svg>
